/* XPM */
static char *_4a84cb33f2d4387966372dbef37422175K6WgS5PAYsNphd[] = {
/* columns rows colors chars-per-pixel */
"16 16 4 1 ",
"  c None",
". c black",
"X c #8B3700",
"o c #FAAEFF",
/* pixels */
"                ",
"                ",
"    ......      ",
"    .oooo..     ",
"    ..oooo..    ",
"   .o..oooo.    ",
"   .oooooooo.   ",
"   .ooooooo...  ",
"   ..ooooo..X.  ",
"    .ooo..XXX.  ",
"    ....XXXXX.  ",
"    .XXXXXXXXX. ",
"    .XXXXXXXXX. ",
"    .XXXXXXXXX. ",
"    .XXXXXXXXXX.",
"    .XXXXXXXXXX."
};
