/* XPM */
static char *_daf38de255c4194ab268af18d577bc81iOsivgoO53PMZnq[] = {
/* columns rows colors chars-per-pixel */
"32 32 9 1 ",
"  c None",
". c black",
"X c #B21818",
"o c #F70000",
"O c red",
"+ c #51F046",
"@ c #F2DADA",
"# c #FDFDFD",
"$ c white",
/* pixels */
"    ....                ....    ",
"    ....                ....    ",
"  ..####................####..  ",
"  ..####................####..  ",
"  ..########################..  ",
"  ..########################..  ",
"  ..####oooooooooooooooo####..  ",
"  ..####o@@@@@@@@@@@@@@o####..  ",
"  ..##ooo@@@@@@@@@@@@@@ooo##..  ",
"  ..##o@@@@@@@@@@@@@@@@@@o##..  ",
"  ..##o@oo@@@@@@@@@@@@oo@o##..  ",
"  ..##o@oo@@@@@@@@@@@@oo@o##..  ",
"  ..##o@@@@@oooooooo@@@@@o##..  ",
"  ..##ooo@@@oooooooo@@@ooo##..  ",
"  ..####o@@@@@@@@@@@@@@o####..  ",
"  ..####oooooooooooooooo####..  ",
"..++++####################++++..",
"..++++####################++++..",
"..@@++OOOOOOOOOOOOOOOOOOOO++@@..",
"..@@++OOOOOOOOOOOOOOOOOOOO++@@..",
"..@@@@@@OOOOOOOOOOOOOOOOOOOO@@..",
"..@@@@@@OOOOOOOOOOOOOOOOOOOO@@..",
"  ..OOOOOOOOOOOOOOOOOOOOOOOO@@..",
"  ..OOOOOOOOOOOOOOOOOOOOOOOO@@..",
"  ..OOOOOOOOOOOOOOOOOOOOOOOO..  ",
"  ..OOOOOOOOOOOOOOOOOOOOOOOO..  ",
"  ..XXXXXXXXXXXXXXXXXXXXXXXX..  ",
"  ..XXXXXXXXXXXXXXXXXXXXXXXX..  ",
"  ..XXXXXX..........XXXXXXXX..  ",
"  ..XXXXXX..........XXXXXXXX..  ",
"    ......          ........    ",
"    ......          ........    "
};
