/* XPM */
static char *_d53fff12d594a47a8a0956f352ad132mh3tUGANQmcv9wsW[] = {
/* columns rows colors chars-per-pixel */
"16 16 3 1 ",
"  c black",
". c #555611",
"X c white",
/* pixels */
"................",
"................",
"..            ..",
".. XXXXXXXXXX ..",
".. XXXXXXXXXX ..",
".. XXXXXXXXXX ..",
".. XXXXXXXXXX ..",
".. XXXXXXXXXX ..",
"..            ..",
"..            ..",
".. XX         ..",
"..            ..",
"..            ..",
"..            ..",
"..            ..",
"..            .."
};
