/* XPM */
static char *af190d2f98eb45d3be21394e367ed7cbh9dLDc6DSCxQHFwN[] = {
/* columns rows colors chars-per-pixel */
"32 32 4 1 ",
"  c black",
". c #555611",
"X c #B2FFFF",
"o c white",
/* pixels */
"................................",
"................................",
"................................",
"................................",
"....                        ....",
"....                        ....",
"....  ooooooooXXooXXoooooo  ....",
"....  ooooooooXXooXXoooooo  ....",
"....  ooooooXXooXXoooooooo  ....",
"....  ooooooXXooXXoooooooo  ....",
"....  ooooXXooXXoooooooooo  ....",
"....  ooooXXooXXoooooooooo  ....",
"....  ooXXooXXoooooooooooo  ....",
"....  ooXXooXXoooooooooooo  ....",
"....  XXooXXoooooooooooooo  ....",
"....  XXooXXoooooooooooooo  ....",
"....                        ....",
"....                        ....",
"....                        ....",
"....                        ....",
"....  oooo                  ....",
"....  oooo                  ....",
"....                        ....",
"....                        ....",
"....                        ....",
"....                        ....",
"....                        ....",
"....                        ....",
"....                        ....",
"....                        ....",
"....                        ....",
"....                        ...."
};
