/* XPM */
static char *_aeca856218044ea9911be34675a7b6eF32RSwWkraLJSMrp[] = {
/* columns rows colors chars-per-pixel */
"16 16 11 1 ",
"  c #4E4E4D",
". c #50504F",
"X c #535353",
"o c #545453",
"O c #575756",
"+ c #585857",
"@ c #585858",
"# c #5A5A59",
"$ c #5C5C5B",
"% c #5E5E5D",
"& c #61615F",
/* pixels */
".##+##O##OXOOXX ",
"#&%%%%%%%##$#%$X",
"#$O##O+######@#X",
"#%+##+####OOO##X",
"#$###+####O ##%X",
"#%+############X",
"#%+############X",
"#$###########O#X",
"#$##++#########X",
"#%+############X",
"#%+############X",
"#$+#####+O#####X",
"#%+$###$OX$####X",
"#$+#####+##+#O#X",
"#&#$+#$#$$O$##%X",
"Xo.XXXX.XXXXXXX "
};
