/* XPM */
static char *_860bd6996c941f99561e895cc9bd5c7TbZGsQ5LxrRBJkJy[] = {
/* columns rows colors chars-per-pixel */
"32 32 12 1 ",
"  c #4E4E4D",
". c #50504F",
"X c #535353",
"o c #545453",
"O c #575756",
"+ c #585857",
"@ c #585858",
"# c #5A5A58",
"$ c #5A5A59",
"% c #5C5C5B",
"& c #5E5E5D",
"* c #61615F",
/* pixels */
"..$$$+$+O$$$O$O$$$OOXXOOXXoooX  ",
"..$$+$+$$$O$O$$$O$OXXXOOOoooXX  ",
"$$**&%&&&&&&&&&&&&%&$&&$%%%%*%XX",
"$$**%&&&&&&&&&&&&&&%$$$&%%%%%%.X",
"$$%%++$+$O@@$+$+@@@$$$$&$$$++%o.",
"$%%%+++$O$@@+$++@@$@$$$$$%++%$oo",
"$$&%$+$$$$O+%$$$$$$%O@OX++$$%$X.",
"$$%&+$$$$$O+$$$$$$%$@OOO+$$$$$XX",
"$$%%$+%$$$++$$$$$$%$OO  ++%$%$XX",
"$$%&+$$$$$+$$$$$$$$$oO  ++$%$%.X",
"$$&%$+$$$$%$$$$$$$$$$$$+%$$$%$XX",
"$%%&++$$$$$$$$$$$$$$$$+$$$$$$$.X",
"$$&%$+$$$$$$$$$$$$$$$$$%$$$$%$XX",
"$$%&+$$$$$$$$$$$$$$$$$%$$$$$$%XX",
"$$%%$+%$$$$$$$$$$$$$$$$$$$$$$$X.",
"$$%&+$$$$$$$$$$$$$$$$$$$$$$$$$XX",
"$$$&$O$$OO$$$$$$$$$$$$$$$$$$$%XX",
"$$&&$$$$OO$$$$$$$$$$$$$$$$$$%$XX",
"$$$&O$$$$$$$$$$$$$$$$$$$$$$$$$X ",
"$$&&O$$$$$$$$$$$$$$$$$$$$$$$$$XX",
"$$&&O$$$$$$$$$$$%$$%$$$$$$$$%$XX",
"$$&$$$$$$$$$$$$$$%%$$$$$$$$$$%XX",
"$$&&$O$$$$$$$$$$$+Xo$$$$$$$$$$XX",
"$$&$$O$$$$$$$$$$OOXX$$$$$$$$$$X.",
"$$&&O$$$$$$$$$$%OOXX$%$$$$$$$$XX",
"$$&$$$$$$$$$$$%$OoXX%$$$$$$$$&XX",
"$$$&O$$$$$$$$$$$$$$$$$$$$$$O%$ X",
"$O&&$O$$$$$$$$$$$$$$$$$$$$$$$$.X",
"%%*%$$&$$$$%%$$$$$%$$%$%%$%%&%oo",
"$+**$$$$$$%$$%$$$%$%$$%$$%$+%%Xo",
".oXoX XXXX.XXXXXX.XX.X.XXXXXXX  ",
"o.XO XXX.XXXXX XXXXXXXXXX.X.XX  "
};
