/* XPM */
static char *_40e2fa22d5c4051f5112609d7511521FLbFoc3gpScSwqmX[] = {
/* columns rows colors chars-per-pixel */
"32 32 109 2 ",
"   c None",
".  c black",
"X  c #C38F59",
"o  c #C5915A",
"O  c #C4965C",
"+  c #C9955C",
"@  c #C9955D",
"#  c #C8AB65",
"$  c #C8AC66",
"%  c #CAAD66",
"&  c #DDA063",
"*  c #DEA163",
"=  c #DEA164",
"-  c #C4B566",
";  c #C4B666",
":  c #C9BC68",
">  c #C9BD68",
",  c #C3BC78",
"<  c #C5BE78",
"1  c #DCBC70",
"2  c #DEBE70",
"3  c #E1A064",
"4  c #E0A164",
"5  c #E0A464",
"6  c #E2A465",
"7  c #E3A665",
"8  c #E2AA67",
"9  c #E1B16A",
"0  c #E3BD70",
"q  c #FFBF74",
"w  c #DCD174",
"e  c #DDD175",
"r  c #DDD376",
"t  c #E0C672",
"y  c #E0C673",
"u  c #FFC074",
"i  c #FFC175",
"p  c #FFCC7A",
"a  c #FFCD7A",
"s  c #FFCC7B",
"d  c #FDCE7A",
"f  c #FDCF7A",
"g  c #FECF7B",
"h  c #E3D377",
"j  c #E1D576",
"k  c #E1D677",
"l  c #E2D777",
"z  c #E3D778",
"x  c #E2D878",
"c  c #FDD07B",
"v  c #FED07B",
"b  c #FED17B",
"n  c #FBD37C",
"m  c #FFD17C",
"M  c #FFD27C",
"N  c #FFD27D",
"B  c #FFD37D",
"V  c #FAD47C",
"C  c #FBD67C",
"Z  c #FFD47D",
"A  c #FFD67E",
"S  c #FFD87F",
"D  c #FDDC7F",
"F  c #FDDD7F",
"G  c #FDDE7E",
"H  c #FFD980",
"J  c #FFDA81",
"K  c #FFDB81",
"L  c #FFDD81",
"P  c #FEDF80",
"I  c #FDDE82",
"U  c #FDDF83",
"Y  c #FFDF82",
"T  c #FEDE83",
"R  c #FBD984",
"E  c #FDDF88",
"W  c #FDDE89",
"Q  c #FDDF89",
"!  c #FDDF8A",
"~  c #FFE081",
"^  c #FFE082",
"/  c #FFE183",
"(  c #FFE581",
")  c #FFE681",
"_  c #FFE781",
"`  c #FFE783",
"'  c #FFE184",
"]  c #FFE284",
"[  c #FFE384",
"{  c #FFE285",
"}  c #FFE881",
"|  c #FFE982",
" . c #FFE883",
".. c #FFEA82",
"X. c #FFEB83",
"o. c #FFEE82",
"O. c #FFEE83",
"+. c #FFEA85",
"@. c #FFEE84",
"#. c #FFEF85",
"$. c #FEE089",
"%. c #FFF08B",
"&. c #FFF38A",
"*. c #FFF08D",
"=. c #FFF299",
"-. c #FFF29A",
";. c #FFF39D",
":. c #FFF39E",
">. c #FFFF9A",
/* pixels */
"                    . . . . . . . . . . . .                     ",
"                    . . . . . . . . . . . .                     ",
"            . . . . r e z z z j z j h h 2 2 . . . .             ",
"            . . . . r e z z j j r z h h 2 2 . . . .             ",
"        . . , , > : _ _ | | _ _  . .~ _ K K $ $ O O . .         ",
"        . . , , > > _ _ _ | [ _  . ._ _ K K $ $ O O . .         ",
"    . . < < >.>.X.X.$.$.W $.U U U U W W U G ~ ~ K K O O . .     ",
"    . . < < >.>.X.| $.$.! ! U U U U W U U G ~ { K K O O . .     ",
"    . . > > | X.R R =.=.:.:.%.%.*.*.=.=.o.o.V V K U # # . .     ",
"    . . > > | | R R =.=.:.:.%.%.*.*.=.=.#.X.V V U K $ $ . .     ",
". . e e _ _ W $.=.=.{ { { { { { ~ [ { { ~ { u u g v v B * * . . ",
". . e e _ _ $.W =.;.{ { [ [ ~ { { [ { ~ { { u u v v v v * * . . ",
". . x x | | W W :.:.[ [ { ~ [ [ { [ [ { { { q u a a U U 0 0 . . ",
". . x x | | W W :.:.~ { ~ { ~ { { ~ { { { ~ q u a g U U 0 0 . . ",
". . y y ~ ~ U U *.*.~ { { ~ [ { ~ { ~ [ { { u u v v S S 9 9 . . ",
". . y y ~ ~ U U *.*.[ { { { [ { [ { { [ ~ ~ u u g g S S 9 9 . . ",
". . y y ~ ~ G G o.o.{ { { { ~ { [ { ~ [ { { q q v v B v 3 3 . . ",
". . y y ~ ~ G G o.o.~ { ~ { [ { { { { [ { ~ q q v v v v 3 3 . . ",
". . z r  .+.G K #.#.[ [ [ [ ~ { ~ { [ [ { { q q v V B B 7 7 . . ",
". . x x +.+.G S #.#.~ { { { { { [ { [ [ { ~ q q v v B B 7 7 . . ",
". . e w [ [ G G #.#.~ [ { { ~ U { { { { ~ { q u v v B v = = . . ",
". . w w _ _ U G #.X.~ { { ~ { { ~ { { ~ { ~ q q v g v B = = . . ",
"    . . % % G U C C i i q q i q i i q q u u V V g g + + . .     ",
"    . . % % U U C C i i q q q i i q q q u u V V p p + + . .     ",
"    . . ; ; %.&.K S g g f f c c V f g V f B g s p p X X . .     ",
"    . . ; ; &.&.S K g g f f c f g g g v f s p s s p X X . .     ",
"        . . ; ; $ % ~ ~ Z Z Z B B B Z Z B B + + o o . .         ",
"        . . ; ; $ $ { ~ Z Z B B B B Z B B v + + o o . .         ",
"            . . . . 2 1 8 8 = 3 * 5 6 6 & & . . . .             ",
"            . . . . 1 1 8 8 3 3 5 5 6 6 & = . . . .             ",
"                    . . . . . . . . . . . .                     ",
"                    . . . . . . . . . . . .                     "
};
