/* XPM */
static char *cf945c49072d4317b985b9f303f3c34azH8B2iL3rORirZuy[] = {
/* columns rows colors chars-per-pixel */
"16 16 90 1 ",
"  c #00000B",
". c #00001A",
"X c #000023",
"o c #000027",
"O c #000028",
"+ c #00002B",
"@ c #000035",
"# c #000039",
"$ c #000E3B",
"% c #00143B",
"& c #321A34",
"* c #2C2A37",
"= c #303038",
"- c #323038",
"; c #353038",
": c #353639",
"> c #303D39",
", c #292944",
"< c #2B2B45",
"1 c #322F46",
"2 c #332F46",
"3 c #333044",
"4 c #323246",
"5 c #363144",
"6 c #363245",
"7 c #363445",
"8 c #353447",
"9 c #303048",
"0 c #3C3548",
"q c #3C3B4A",
"w c #403648",
"e c #403C49",
"r c #92684B",
"t c #959056",
"y c #938E65",
"u c #C28E59",
"i c #C4905A",
"p c #C3955C",
"a c #C8945D",
"s c #DC9F63",
"d c #C7AA66",
"f c #C9AB66",
"g c #DDA064",
"h c #DFA264",
"j c #C3B466",
"k c #C8BC68",
"l c #DBBB6F",
"z c #DDBD6F",
"x c #C2BB77",
"c c #C4BD77",
"v c #E1A265",
"b c #E2A465",
"n c #E1A867",
"m c #E0AF6A",
"M c #E2BC6F",
"N c #FFBE73",
"B c #FFBF73",
"V c #DFC571",
"C c #DBD073",
"Z c #DCD275",
"A c #FFC074",
"S c #FFCB7A",
"D c #FECF7A",
"F c #E2D276",
"G c #E1D777",
"H c #FBD27B",
"J c #FAD37B",
"K c #FFD07B",
"L c #FBD57B",
"P c #FFD27C",
"I c #FFD77E",
"U c #FDDB7E",
"Y c #FEDE7F",
"T c #FBD883",
"R c #FFDA80",
"E c #FFDF80",
"W c #FDDE87",
"Q c #FDDE89",
"! c #FFE183",
"~ c #FFE580",
"^ c #FFE184",
"/ c #FFE881",
"( c #FFED82",
") c #FFE984",
"_ c #FFEF8A",
"` c #FFEF8C",
"' c #FFF389",
"] c #FFF299",
"[ c #FFF39C",
"{ c #FFFF99",
/* pixels */
"<<4q4OOoXoo402<<",
"<<@ :ZGGGFz-X%<<",
"8@yxk~~~~!Ufpr%2",
"q c{~QQE!WYYUpo0",
"8=k/T][__](JUf&2",
"oZ~Q]^!!!!!ADDgO",
"oG/Q[^^!!!ENDEMO",
"oVYY'^!!!!WNDImO",
"OVYY(!!!!!^NKKgo",
"oG/Y(!!!!!^NDKbO",
"OCYY(!Q!!!YNDDgO",
"5>f!LNNNNANJDa;9",
"e.j'RDDDJKDSSiOq",
"8#tjf!PPKKKaur$2",
"<9#.-lnggbs*o#2<",
"<<5e5OO+OOO5w2<<"
};
