/* XPM */
static char *_fd5feeaccf64c7df73195304aeba822Dof6EGfQetBsjAYr[] = {
/* columns rows colors chars-per-pixel */
"32 32 8 1 ",
"  c None",
". c black",
"X c #51F046",
"o c #5C6DB4",
"O c #46BDF0",
"+ c #F2DADA",
"@ c #FDFDFD",
"# c white",
/* pixels */
"    ....                ....    ",
"    ....                ....    ",
"  ..@@@@................@@@@..  ",
"  ..@@@@................@@@@..  ",
"  ..@@@@@@@@@@@@@@@@@@@@@@@@..  ",
"  ..@@@@@@@@@@@@@@@@@@@@@@@@..  ",
"  ..@@@@++++++++++++++++@@@@..  ",
"  ..@@@@++++++++++++++++@@@@..  ",
"  ..@@++++++++++++++++++++@@..  ",
"  ..@@++++++++++++++++++++@@..  ",
"  ..@@++..++++++++++++..++@@..  ",
"  ..@@++..++++++++++++..++@@..  ",
"  ..@@++++++........++++++@@..  ",
"  ..@@++++++........++++++@@..  ",
"  ..@@@@++++++++++++++++@@@@..  ",
"  ..@@@@++++++++++++++++@@@@..  ",
"..XXXX@@@@@@@@@@@@@@@@@@@@XXXX..",
"..XXXX@@@@@@@@@@@@@@@@@@@@XXXX..",
"..++XXOOOOOOOOOOOOOOOOOOOOXX++..",
"..++XXOOOOOOOOOOOOOOOOOOOOXX++..",
"..++XXOOOOOOOOOOOOOOOOOO++++++..",
"..++XXOOOOOOOOOOOOOOOOOO++++++..",
"..++OOOOOOOOOOOOOOOOOOOOOOOO..  ",
"..++OOOOOOOOOOOOOOOOOOOOOOOO..  ",
"  ..OOOOOOOOOOOOOOOOOOOOOOOO..  ",
"  ..OOOOOOOOOOOOOOOOOOOOOOOO..  ",
"  ..oooooooooooooooooooooooo..  ",
"  ..oooooooooooooooooooooooo..  ",
"  ..oooooooo..........oooooo..  ",
"  ..oooooooo..........oooooo..  ",
"    ........          ......    ",
"    ........          ......    "
};
