/* XPM */
static char *_4ca08b6a2bc4fe1ac71a5b5f42e2a1d7Qi9FYwimEWeZ2y0[] = {
/* columns rows colors chars-per-pixel */
"32 32 4 1 ",
"  c #7D6145",
". c #8B6D4C",
"X c #9A7A55",
"o c #9E8059",
/* pixels */
"oooooooooooooooooooooooooo..oooo",
"oooooooooooooooooooooooooo..oooo",
"oooooooooooooooooooooooooo..oooo",
"oooooooooooooooooooooooooo..oooo",
"oooooooooooooooooooooooooo..oooo",
"oooooooooooooooooooooooooo..oooo",
"  ......    ....................",
"  ......    ....................",
"XXXXXXXXXXXXXXXXXXXXXXXXXXXXXX..",
"XXXXXXXXXXXXXXXXXXXXXXXXXXXXXX..",
"XXXXXXXXXXXXXXXXXXXXXXXXXXXXXX..",
"XXXXXXXXXXXXXXXXXXXXXXXXXXXXXX..",
"XXXXXXXXXXXXXXXXXXXXXXXXXXXXXX  ",
"XXXXXXXXXXXXXXXXXXXXXXXXXXXXXX  ",
"    ........                    ",
"    ........                    ",
"oooooooooooooooooooooooooo..oooo",
"oooooooooooooooooooooooooo..oooo",
"oooooooooooooooooooooooooo..oooo",
"oooooooooooooooooooooooooo..oooo",
"oooooooooooooooooooooooooo..oooo",
"oooooooooooooooooooooooooo..oooo",
"  ......    ....................",
"  ......    ....................",
"XXXXXXXXXXXXXXXXXXXX..XXXXXXXXXX",
"XXXXXXXXXXXXXXXXXXXX..XXXXXXXXXX",
"XXXXXXXXXXXXXXXXXXXX..XXXXXXXXXX",
"XXXXXXXXXXXXXXXXXXXX..XXXXXXXXXX",
"XXXXXXXXXXXXXXXXXXXX..XXXXXXXXXX",
"XXXXXXXXXXXXXXXXXXXX..XXXXXXXXXX",
"    ........                    ",
"    ........                    "
};
